<svg xmlns="http://www.w3.org/2000/svg" xmlns:xlink="http://www.w3.org/1999/xlink" version="1.1" x="0px" y="0px" viewBox="0 0 64 64" style="enable-background:new 0 0 64 64;" xml:space="preserve"><g><path d="M50.647,6.129l0.667,0.111c2.517,0.42,4.7,2.032,5.841,4.314c0.27,0.54,0.476,1.113,0.618,1.701l-7.99,1.776l0.434,1.953   L58,14.254v1.906l-10.032,1.672C47.975,17.621,48,17.412,48,17.2v-0.828c0-2.112,0.376-4.186,1.118-6.163L50.647,6.129z    M41.396,4.167l0.348-1.16h2.923c0.645,0,1.284,0.213,1.8,0.6l2.334,1.751l-1.556,4.148C46.419,11.708,46,14.019,46,16.372V17.2   c0,1.285-0.149,2.549-0.423,3.787c-3.222-0.21-5.89-2.783-6.161-6.038l-0.406-4.875C39.982,8.186,40.784,6.208,41.396,4.167z    M35,12.842V7.007h3.239C37.364,9.058,36.272,11.012,35,12.842z M32,16.571c-0.344-0.367-0.673-0.747-1-1.129V7.007h2v8.434   C32.673,15.824,32.344,16.204,32,16.571z M29,7.007v5.835c-1.272-1.831-2.364-3.784-3.239-5.835H29z M6,17.087v-1.963l7.89,0.877   l0.221-1.988L6.07,13.12c0.115-0.89,0.374-1.763,0.775-2.566c1.141-2.282,3.324-3.895,5.841-4.314l0.667-0.111l1.529,4.081   C15.624,12.186,16,14.259,16,16.372V17.2c0,0.243,0.028,0.482,0.036,0.724L6,17.087z M16.755,9.507l-1.556-4.149l2.335-1.751   c0.515-0.387,1.154-0.6,1.799-0.6h2.923l0.348,1.16c0.612,2.04,1.414,4.018,2.388,5.907l-0.406,4.875   c-0.271,3.255-2.94,5.828-6.161,6.038C18.149,19.748,18,18.484,18,17.2v-0.828C18,14.019,17.581,11.708,16.755,9.507z M19,41.007h7   v2h-7V41.007z M44.352,51.457l-1.666,0.5c-4.45,1.336-7.923,4.689-9.419,9.05h-2.533c-1.496-4.36-4.969-7.714-9.419-9.05   l-1.666-0.5C19.267,51.343,19,50.985,19,50.585c0-0.18,0.053-0.354,0.168-0.527c1.012-1.519,1.616-3.248,1.781-5.051h5.329   c0.347,0.595,0.985,1,1.722,1h8c0.737,0,1.375-0.405,1.722-1h5.329c0.165,1.803,0.771,3.536,1.796,5.074   C44.947,50.231,45,50.406,45,50.585C45,50.985,44.733,51.343,44.352,51.457z M28,44.007v-4h8l0.002,4H28z M38,41.007h7v2h-7V41.007   z M44.581,24.114C43.532,26.562,43,29.154,43,31.815v7.192h-5.278c-0.347-0.595-0.985-1-1.722-1h-8c-0.737,0-1.375,0.405-1.722,1   H21v-7.192c0-2.661-0.532-5.253-1.581-7.701c-0.165-0.385-0.297-0.778-0.433-1.17c4-0.468,7.251-3.735,7.591-7.829l0.17-2.043   c1.316,2.028,2.831,3.929,4.545,5.643L32,19.421l0.707-0.707c1.714-1.714,3.229-3.615,4.545-5.643l0.17,2.043   c0.341,4.094,3.591,7.361,7.591,7.829C44.878,23.336,44.746,23.729,44.581,24.114z"/><path d="M33,24.007v-1h-2v1c0,1.654-1.346,3-3,3h-3v2h3c1.641,0,3.088-0.806,4-2.031c0.912,1.225,2.359,2.031,4,2.031h3v-2h-3   C34.346,27.007,33,25.662,33,24.007z"/><path d="M33,31.007v-1h-2v1c0,1.654-1.346,3-3,3h-3v2h3c1.641,0,3.088-0.806,4-2.031c0.912,1.225,2.359,2.031,4,2.031h3v-2h-3   C34.346,34.007,33,32.662,33,31.007z"/></g></svg>