<svg xmlns="http://www.w3.org/2000/svg" version="1.1" viewBox="-5.0 -10.0 110.0 110.0">
 <path d="m64.035 22.406 0.29297 10.816h0.69141c3.9219-6.8008 8.9102-9.2383 16.168-8.2969-5.2422-3.1289-11.273-2.5195-17.152-2.5195zm-13.949-0.003906c-11.496-0.089844-15.598-4.9648-25.359-16.973-7.8828 15.168-7.8828 29.598 0 44.766 9.5078-11.695 13.645-16.625 24.48-16.957zm5.25 3.4688c0-1.8945 2.8789-1.8945 2.8789 0 0 2.4336 0.52344 5.1797-1.4414 5.1797-1.957 0-1.4375-2.7461-1.4375-5.1797zm-2.2539-4.8398-1.5273 18.848c0.21875 0.72266 5.1055 5.6523 5.1016 6.9219h0.003906v30.109c0 0.37109-0.14062 0.71094-0.37109 0.96484l-6.1055 7.9375 9.8281 8.7539 2.625-17.762-1.6094-59.496h-7.6445z" fill-rule="evenodd"/></svg>