<svg xmlns="http://www.w3.org/2000/svg" version="1.1" viewBox="-5.0 -10.0 110.0 110.0">
 <path d="m83.602 25.602-3.3984-9.5-9.8008-2.5s-1.6992-0.69922-3.3984 1.8984l-4.2031 6.5s-3.6992 6.1992-0.39844 9.8984l-8.8984 10.898-10.504 9.8047v0.59766l-0.39844 0.5h-0.5l-1.3008 1.3008v0.39844l-0.39844 0.39844-0.39844 0.10156-1.3984 1.5-0.10156 0.5-1.1992 1.3984-0.89844 0.19922-3.1992 3.5 0.39844 0.39844-1 1.1016-0.30469-0.49609-2.1992 2.3984 0.39844 0.39844-2 2.1992-0.5-0.39453-2.1992 2.3984-1.3008 4.3008s-0.89844 0.39844-0.69922 1.3008l0.19922 0.39844-7 7.6992-0.80078 1.8984 1.8008-1 7-7.6992 0.19922 0.19922c0.89844 0.10156 1.1992-0.80078 1.1992-0.80078l4.1992-1.6992 2.1992-2.3984-0.5-0.39844 2-2.1992 0.39844 0.39844 2.1992-2.3984-0.19531-0.60156 1-1.1016 0.39844 0.39844 3.1992-3.5 0.19922-0.89844 1.1992-1.3984 0.39844-0.10156 1.3984-1.5 0.10156-0.39844 0.39844-0.39844h0.39844l1.1992-1.3984v-0.5l0.39844-0.5 0.5-0.10156 8.8008-11.398 10-9.8984c4 2.8984 9.8984-1.3008 9.8984-1.3008l6-4.8984c2.3125-1.9062 1.4141-3.5039 1.4141-3.5039z"/></svg>