<svg xmlns="http://www.w3.org/2000/svg" xmlns:xlink="http://www.w3.org/1999/xlink" version="1.1" x="0px" y="0px" viewBox="0 0 100 100" style="enable-background:new 0 0 100 100;" xml:space="preserve"><g><path d="M56.99,43.01c-0.07-0.07-0.14-0.12-0.21-0.19C56.85,42.89,56.92,42.95,56.99,43.01c0.06,0.07,0.12,0.14,0.18,0.21   C57.11,43.15,57.06,43.07,56.99,43.01z"/><circle cx="63.3" cy="36.7" r="2.05"/><path d="M75.49,53.91c5.09-5.08,8.67-11.18,10.44-17.77c-1.83,0.51-3.68,0.77-5.5,0.77c-3.23,0-6.35-0.81-9.07-2.41   c-1.21-0.72-2.31-1.58-3.29-2.55c-0.97-0.98-1.83-2.09-2.55-3.29c-2.51-4.24-3.08-9.47-1.65-14.57   c-6.58,1.77-12.7,5.35-17.77,10.44c-4.07,4.07-7.23,8.91-9.24,14.11c2.89-1.42,5.99-2.14,9.02-2.14c3.27,0,6.5,0.83,9.29,2.52   c1.19,0.73,2.29,1.59,3.27,2.56c0.97,0.98,1.83,2.09,2.56,3.27c3.24,5.39,3.34,12.33,0.38,18.32   C66.57,61.14,71.41,57.98,75.49,53.91z M63.3,40.79c-2.26,0-4.09-1.83-4.09-4.09c0-2.26,1.83-4.09,4.09-4.09s4.09,1.83,4.09,4.09   C67.39,38.96,65.56,40.79,63.3,40.79z"/><path d="M93.94,31.99c-1.74,1.4-3.65,2.53-5.7,3.36c-0.03,0.13-0.06,0.26-0.1,0.38c-0.08,0.35-0.18,0.69-0.28,1.02   c-0.1,0.37-0.18,0.73-0.3,1.08c-0.17,0.58-0.38,1.15-0.58,1.72c-0.12,0.34-0.23,0.69-0.36,1.02c-0.23,0.58-0.48,1.16-0.73,1.73   c-0.14,0.32-0.27,0.63-0.41,0.95c-0.29,0.6-0.59,1.19-0.91,1.78c-0.14,0.27-0.28,0.54-0.42,0.82c-0.37,0.64-0.76,1.28-1.16,1.9   c-0.12,0.2-0.24,0.41-0.37,0.6c-0.48,0.75-1,1.47-1.53,2.19c-0.06,0.07-0.11,0.15-0.16,0.24c-0.57,0.75-1.17,1.48-1.79,2.19   c0.62-0.72,1.22-1.45,1.78-2.19c-1.21,1.6-2.54,3.13-3.99,4.57c-1.73,1.73-3.59,3.29-5.56,4.69c0.01-0.01,0.03-0.02,0.04-0.03   c-0.01,0.01-0.03,0.02-0.04,0.03c-0.29,0.21-0.59,0.41-0.88,0.61c-0.56,0.38-1.12,0.75-1.69,1.1c-0.08,0.05-0.17,0.09-0.26,0.14   c-0.63,0.39-1.28,0.76-1.93,1.11c-0.28,0.14-0.55,0.27-0.82,0.4c-0.48,0.24-0.95,0.48-1.43,0.71c-0.45,0.2-0.91,0.38-1.37,0.57   c-0.31,0.12-0.61,0.27-0.93,0.39c-0.63,0.24-1.29,0.46-1.93,0.68c-0.12,0.03-0.25,0.08-0.37,0.12c-0.74,1.07-1.59,2.08-2.5,3   c-1.34,1.33-2.83,2.49-4.45,3.43c10.31,0.88,21.36-3.36,29.53-11.53C90.33,52.78,94.58,42.15,93.94,31.99z"/><path d="M70.49,60.66c-0.55,0.37-1.11,0.75-1.68,1.09C69.38,61.41,69.94,61.04,70.49,60.66z"/><path d="M71.38,60.04c-0.29,0.21-0.59,0.41-0.89,0.62c0,0,0,0,0.01,0C70.79,60.45,71.09,60.25,71.38,60.04   C71.38,60.04,71.38,60.04,71.38,60.04z"/><path d="M31.13,42.73c0.92-0.91,1.92-1.75,3-2.5c0.04-0.13,0.09-0.27,0.13-0.4c0.21-0.63,0.43-1.28,0.67-1.9   c0.12-0.32,0.27-0.62,0.39-0.93c0.19-0.46,0.37-0.92,0.57-1.37c0.23-0.47,0.46-0.94,0.7-1.41c0.14-0.28,0.27-0.56,0.41-0.84   c0.34-0.63,0.71-1.26,1.07-1.88c0.06-0.1,0.11-0.21,0.18-0.32c0.4-0.67,0.83-1.32,1.28-1.97c1.5-2.19,3.21-4.25,5.11-6.15   c1.19-1.19,2.45-2.28,3.74-3.31c0.28-0.22,0.55-0.46,0.84-0.68c0.01-0.01,0.01-0.01,0.02-0.01c0.79-0.6,1.59-1.17,2.41-1.7   c0.11-0.08,0.23-0.14,0.35-0.21c0.71-0.46,1.43-0.9,2.17-1.31c0.18-0.1,0.38-0.19,0.57-0.3c0.67-0.36,1.34-0.72,2.02-1.03   c0.26-0.12,0.52-0.21,0.78-0.34c0.62-0.28,1.26-0.55,1.89-0.8c0.31-0.11,0.62-0.21,0.94-0.33c0.59-0.21,1.19-0.42,1.79-0.6   c0.36-0.11,0.73-0.19,1.08-0.3c0.34-0.09,0.68-0.19,1.02-0.28c0.12-0.04,0.25-0.07,0.38-0.1c0.83-2.05,1.95-3.96,3.36-5.7   C67.33,6.02,66.66,6,65.97,6c-9.53,0-19.28,4.2-26.74,11.65c-8.18,8.17-12.42,19.22-11.53,29.53   C28.64,45.57,29.8,44.08,31.13,42.73z"/><path d="M58.37,44.63c-0.09-0.12-0.18-0.26-0.28-0.38c-0.3-0.36-0.59-0.71-0.92-1.03c-0.06-0.07-0.12-0.14-0.18-0.2   s-0.14-0.12-0.2-0.18c-0.33-0.33-0.68-0.62-1.03-0.92c-0.12-0.09-0.26-0.18-0.39-0.29c-0.19-0.14-0.38-0.3-0.58-0.44l-0.02,0.02   l-9.64,9.66L26.3,69.66l4.04,4.04l28.48-28.48C58.68,45.02,58.52,44.82,58.37,44.63z"/><path d="M67.69,28.27c0.12,0.19,0.27,0.37,0.41,0.55c0.1,0.14,0.2,0.29,0.32,0.43c0.3,0.37,0.6,0.73,0.93,1.06   c0.03,0.03,0.06,0.06,0.09,0.09c0.02,0.03,0.05,0.06,0.08,0.09c0.03,0.03,0.06,0.05,0.09,0.08c0.03,0.03,0.06,0.05,0.09,0.09   c0.34,0.33,0.7,0.63,1.06,0.93c0.14,0.11,0.29,0.21,0.43,0.32c0.18,0.13,0.36,0.29,0.55,0.41l0.02-0.02l5.02-5.02l-4.04-4.04   l-5.02,5.02L67.69,28.27z"/><path d="M24.12,70.39c-0.21-0.21-0.51-0.33-0.81-0.33c-0.31,0-0.62,0.12-0.86,0.35l-0.27,0.28c-0.25,0.25-0.37,0.54-0.37,0.86   s0.12,0.61,0.35,0.84l0.16,0.17l0.28,0.28l4.97,4.96c0.26,0.26,0.55,0.38,0.87,0.38c0.32,0,0.61-0.12,0.84-0.35l0.3-0.3   c0.45-0.46,0.46-1.21,0.01-1.67L24.12,70.39z"/><path d="M79.03,26.4c0.45,0.46,1.23,0.46,1.68,0.01l0.31-0.3c0.45-0.47,0.45-1.23-0.01-1.7l-0.06-0.06   c-0.03-0.02-0.06-0.05-0.09-0.07l-5.14-5.14c-0.03-0.03-0.05-0.06-0.08-0.09L75.57,19c-0.23-0.24-0.53-0.35-0.84-0.35   s-0.62,0.11-0.86,0.35l-0.27,0.29c-0.25,0.24-0.37,0.53-0.37,0.85c0,0.32,0.12,0.61,0.35,0.84L79.03,26.4z"/><rect x="12.77" y="78.37" transform="matrix(0.7071 -0.7071 0.7071 0.7071 -51.6899 37.1678)" width="12.5" height="5.22"/><path d="M10.37,84.06c-0.45-0.45-1.04-0.68-1.64-0.68c-0.59,0-1.19,0.23-1.64,0.68l-0.42,0.42C6.25,84.92,6,85.51,6,86.12   c0,0.62,0.25,1.2,0.68,1.64l5.57,5.57c0.9,0.9,2.37,0.9,3.27,0l0.42-0.42c0.9-0.91,0.9-2.37,0-3.27L10.37,84.06z"/><polygon points="84.95,20.35 86.27,13.73 79.65,15.05 77.73,18.26 81.74,22.27  "/></g></svg>