<svg xmlns="http://www.w3.org/2000/svg" data-name="Lager 1" viewBox="0 0 100 100" x="0px" y="0px"><path d="M66.9,10.55,48.8,7.45l-18.1,3.1-5,24.9V40l2.5,24.9,20.6,7.2,20.6-7.2L71.9,40v-4.4ZM36.7,60.85H35.3v-1h-1v-1.4h1v-1h1.4Zm4.5,1.7H39.7v-1h-1v-1.4h1v-1h1.4v3.4Zm0-6.5H39.7v-1h-1v-1.4h1v-1h1.4v3.4ZM46.4,66H45V65H44v-1.4h1v-1h1.4Zm0-6.5H45v-1H44v-1.4h1v-1h1.4Zm0-6.5H45V52H44v-1.4h1v-1h1.4Zm-.8-12.4-15.4-1.8v-3.6l14.5,2.7Zm22-1.9-15.4,1.8.9-2.7,14.5-2.7Z"/><path d="M51.55,74.16l18-6.84s2.2-.5,2.3-1.4a17.58,17.58,0,0,0,0-2.3c0-.6,0-1.6.8-1.7s12.4,4.5,14.7,6.5,6.8,19.3,6.8,19.3l.7,4.6L51.59,88.51c-.4,0-.6-.6-.3-.8a5.48,5.48,0,0,0,2.64-3.32l31.35,4.3c1.49.29,1.71-1.44.16-1.66L54.26,82.37a10.82,10.82,0,0,0-.43-3.46.22.22,0,0,1,.2-.2l9.57-2c1.43-.35,1.3-2.25-.41-2,0,0-9.65,1.91-10.14,1.77-.9-.3-1.3-1.4-1.7-1.8A.76.76,0,0,1,51.55,74.16Z"/><path d="M34.78,69.12l-7.08-2.5a2,2,0,0,1-1.2-1.7l-1-9.8a.89.89,0,0,0-1-.8,38.08,38.08,0,0,0-10.6,3.9c-5.6,3.2-3.1,8.9-3.1,8.9l1,3.7.1-.1a15.21,15.21,0,0,0-3.5,5.8c-1.1,3.2-3.3,1.1-3.3,4.8,0,4.1,20.7,4.6,27.2,4.7a1.28,1.28,0,0,0,1.2-1.6c-.3-.9-1.5-2.9-1.6-4.8a8.54,8.54,0,0,1,3.2-7.9A1.59,1.59,0,0,0,34.78,69.12ZM12.58,68a7,7,0,0,1,.2-6.8c1.26-1.73,5.7-4.07,10.43-5.28a.72.72,0,0,1,.27,1.41,53.91,53.91,0,0,0-6.23,2.48c-3.63,2.05-4.25,3.67-3.37,6.61,1,3.39,12,5.3,15.46,6.15,1.34.34.93,2-.38,1.68C27.25,73.83,14.6,71.13,12.58,68Z"/><ellipse cx="42.75" cy="79.98" rx="4.62" ry="6.31" transform="translate(-47.89 83.06) rotate(-63.82)"/><path d="M35.65,76.53c1.5-3,5.9-3.8,9.8-1.9s5.9,5.9,4.5,8.9-5.9,3.8-9.8,1.9-6-5.9-4.5-8.9m-1.7-.8c-1.9,3.9.5,9,5.3,11.4s10.3,1.1,12.3-2.8-.5-9-5.3-11.4S36,71.73,34,75.73Z"/></svg>