<svg xmlns="http://www.w3.org/2000/svg" xmlns:xlink="http://www.w3.org/1999/xlink" version="1.1" x="0px" y="0px" viewBox="0 0 100 100" enable-background="new 0 0 100 100" xml:space="preserve"><g><path d="M69.4,29.7l-7.6,6.5l6.5-7.6l-1.1-0.9c-1.3,1.4-5.3,5.5-7.2,7.4c-0.5,0.6-33.8,34.4-44.8,45.5c-3.2,3.2-6.3,6.5-9.4,9.8   c-0.6,0.7-0.9,1.8-1.3,2.6c0.1,0.1,0.3,0.2,0.4,0.4c1-0.5,2.2-0.8,3-1.5c3.4-3,6.8-6.1,10-9.3c7.4-7.1,14.7-14.3,22-21.5   c8.3-8.2,16.5-16.4,24.7-24.6c1.9-1.9,3.8-3.8,5.7-5.7L69.4,29.7z"/><g><path d="M90,4.2c0.1,0.7,0,1.7-0.4,2.1c-2.5,2.5-5.8,5.2-8.4,7.5c-0.5,0.5-6.3,6.3-8.8,9.1c-0.9,1-1.8,1.9-2.9,2.9l2.5,2.5    c3.2-3.2,10.6-10.4,11.8-11.8c2.1-2.6,4.4-5,6.5-7.7c0.8-1,1.7-1.6,3.3-1.3c0.8,0.1,1.2-0.3,1-1.3c-0.3-1.1-1.9-2.9-3-3.3    C90.4,2.5,89.9,3.1,90,4.2z"/><path d="M57.6,14.6c-0.3,0.3-1,1.2-1.2,1.4c1.8,1.8,3.5,3.5,5.2,5.2c1.6,1.7,6.2,6.1,6.2,6.1l0,0l3.1,3.1l0,0    c3.6,3.6,7.1,7.1,10.7,10.7c0.4-0.4,0.8-0.8,1.3-1.3C78.3,36.6,60.7,18.8,57.6,14.6z"/></g></g></svg>