<svg xmlns="http://www.w3.org/2000/svg" xmlns:xlink="http://www.w3.org/1999/xlink" version="1.1" x="0px" y="0px" viewBox="0 0 485.618 485.619" style="enable-background:new 0 0 485.618 485.619;" xml:space="preserve"><g><path d="M6.387,448.394C2.269,452.513,0,457.989,0,463.813s2.269,11.3,6.387,15.419c4.119,4.118,9.595,6.387,15.419,6.387   s11.3-2.269,15.419-6.387l9.725-9.725l-30.838-30.838L6.387,448.394z"/><path d="M36.428,418.353l-14.661,14.661l30.838,30.838l28.936-28.936c-0.566,0.017-1.129,0.026-1.69,0.026   C62.515,434.941,47.409,426.776,36.428,418.353z"/><path d="M317.394,86.656c0-2.586,0.128-5.152,0.365-7.694c-7.332,0.749-14.241,3.322-20.63,7.694   c6.389,4.372,13.298,6.945,20.63,7.694C317.522,91.807,317.394,89.242,317.394,86.656z"/><path d="M341.285,28.978c1.824-1.824,3.73-3.533,5.69-5.161c-5.715-4.656-12.409-7.743-20.02-9.169   c1.425,7.607,4.51,14.298,9.162,20.011C337.744,32.7,339.462,30.801,341.285,28.978z"/><path d="M461.808,34.661c4.652-5.714,7.738-12.405,9.163-20.013c-7.608,1.425-14.299,4.51-20.013,9.163   c1.961,1.626,3.861,3.344,5.683,5.166C458.463,30.8,460.182,32.699,461.808,34.661z"/><path d="M450.984,138.677c6.093-6.092,10.959-13.055,14.559-20.729c-2.412-0.15-4.83-0.468-7.252-0.976   c-2.162-0.453-3.548-2.573-3.095-4.735c0.452-2.162,2.562-3.55,4.735-3.095c8.631,1.808,17.252,0.892,25.687-2.722   c-6.275-6.696-13.803-10.995-22.435-12.803c-2.162-0.453-3.548-2.573-3.095-4.735c0.453-2.161,2.569-3.551,4.735-3.095   c2.657,0.557,5.218,1.32,7.691,2.266c0.387-19.966-7.29-39.178-21.531-53.418c-14.242-14.242-33.458-21.92-53.419-21.532   c0.946,2.474,1.71,5.035,2.267,7.692c0.453,2.162-0.933,4.282-3.095,4.735c-2.162,0.454-4.282-0.933-4.735-3.095   C390.194,13.804,385.896,6.277,379.199,0c-3.613,8.436-4.53,17.055-2.722,25.687c0.453,2.162-0.933,4.282-3.095,4.735   c-0.276,0.058-0.553,0.086-0.824,0.086c-1.854,0-3.516-1.295-3.911-3.181c-0.507-2.422-0.827-4.84-0.977-7.252   c-7.673,3.599-14.635,8.465-20.729,14.559c-13.896,13.895-21.548,32.37-21.548,52.021s7.652,38.126,21.548,52.021   C375.627,167.361,422.299,167.361,450.984,138.677z M405.262,57.827c8.725-8.724,19.808-13.675,32.941-14.716   c1.178-0.101,2.317,0.331,3.145,1.159c0.828,0.828,1.252,1.977,1.159,3.145c-1.04,13.135-5.991,24.219-14.716,32.942   c-0.78,0.781-1.805,1.171-2.828,1.171s-2.048-0.391-2.828-1.172c-1.563-1.562-1.563-4.095,0-5.657   c6.235-6.235,10.185-13.952,11.774-22.991c-9.038,1.59-16.754,5.539-22.991,11.775c-1.561,1.562-4.096,1.562-5.656,0   C403.699,61.922,403.699,59.389,405.262,57.827z M372.532,90.557c1.561-1.563,4.094-1.562,5.656,0c1.563,1.562,1.563,4.095,0,5.657   c-6.235,6.237-10.185,13.953-11.774,22.991c9.038-1.59,16.755-5.539,22.991-11.775c1.561-1.563,4.094-1.562,5.656,0   c1.563,1.562,1.563,4.095,0,5.657c-8.724,8.725-19.807,13.676-32.942,14.716c-0.105,0.009-0.211,0.013-0.315,0.013   c-1.057,0-2.075-0.418-2.828-1.171c-0.828-0.828-1.252-1.977-1.159-3.145C358.856,110.365,363.808,99.281,372.532,90.557z"/><path d="M58.687,396.094l-16.553,16.553c12.144,9.101,29.483,17.564,48.694,12.982l12.973-12.973   c-0.566,0.017-1.129,0.026-1.69,0.026C84.774,412.682,69.668,404.517,58.687,396.094z"/><path d="M327.956,126.825l-35.362,35.361c-2.975,2.975-2.975,7.815,0,10.791l20.047,20.046c2.976,2.975,7.814,2.976,10.792,0   l35.379-35.379c-6.276-3.547-12.187-7.969-17.528-13.31C335.999,139.048,331.55,133.154,327.956,126.825z"/><rect x="135.838" y="245.221" transform="matrix(0.7071 -0.7071 0.7071 0.7071 -113.1621 237.5955)" width="188.768" height="20.351"/><path d="M391.265,167.823c0.744,7.346,3.318,14.268,7.698,20.667c4.38-6.399,6.954-13.321,7.698-20.668   c-2.56,0.241-5.129,0.364-7.698,0.364C396.394,168.187,393.825,168.063,391.265,167.823z"/><path d="M456.641,144.334c-1.83,1.83-3.733,3.543-5.688,5.162c5.715,4.655,12.408,7.742,20.018,9.168   c-1.426-7.611-4.513-14.304-9.168-20.02C460.174,140.604,458.465,142.51,456.641,144.334z"/><path d="M108.909,345.872c10.822,8.11,25.77,15.713,42.491,14.032l-28.261-28.262L108.909,345.872z"/><path d="M147.803,317.769c-1.487-1.487-3.441-2.23-5.396-2.23s-3.908,0.743-5.396,2.23l-8.217,8.217l30.838,30.838l8.217-8.217   c2.975-2.976,2.975-7.815,0-10.791L147.803,317.769z"/><path d="M80.946,373.835l-16.553,16.553c12.142,9.1,29.478,17.563,48.694,12.982l12.973-12.973   c-0.566,0.017-1.129,0.026-1.69,0.026C107.032,390.423,91.927,382.258,80.946,373.835z"/><path d="M103.203,351.577L86.651,368.13c12.142,9.1,29.477,17.564,48.693,12.982l12.973-12.973   c-0.566,0.017-1.129,0.026-1.69,0.026C129.29,368.166,114.185,360,103.203,351.577z"/></g></svg>