<svg xmlns="http://www.w3.org/2000/svg" xmlns:xlink="http://www.w3.org/1999/xlink" version="1.1" x="0px" y="0px" viewBox="0 0 100 100" style="enable-background:new 0 0 100 100;" xml:space="preserve"><path d="M5.6,22.1c-0.1,3.7,5.9,8.6,5.9,8.6s23.3,12.8,25.9,14.2c0.4-8.7,3.7-13.1,11.4-16.1c-4.5-5-22-23.8-25.3-23.7  c-0.7,0-1.5,0.1-2.2,0.2c0.2,1.4-2.5,2.4-4.1,1.6c-0.3-0.2-8.8,3-11.3,10.4C5.7,18,7.9,22.1,5.6,22.1z"/><path d="M87.8,51.7c-1.2-0.4-22.7-12.5-23.5-12.3c-2.9,0.6-6.3,2.8-8.2,4.9C53,47.7,52,51.2,52,56c0,1.5,0.4,2.8,1.4,4  c5.4,6.7,15.9,16.4,15.9,16.4c0.4-2.7,1-5.4,1.8-7.9c-0.8-1.6-1.2-4.5,1.9-4.7C75.8,58.1,80.4,53.6,87.8,51.7z"/><path d="M12.7,91.3c10.3-0.6,14.5-8.1,14.5-8.1s-2.8,6.3-7.1,11.9c6.8-2.7,10.4-10.4,11.9-15.8c1.5-5.5,7.3-15.5,17.4-18.7  c0.4-0.1-4.2-5.3-5.6-4.8c-5.7,1.9-14.7,11.6-16.8,18C24.5,80.9,21.7,87.3,12.7,91.3z"/><path d="M80.9,58.6c3,1.9,5.8,3.6,8.8,5.5c-0.8,0.2-1.4,0.3-2,0.4c-4.1,0.8-6.4,3.2-6.9,7.3c-0.1,1-0.1,2,0.1,3  c0.3,1.4,1.3,1.9,2.7,1.5c1.6-0.4,2.8-1.4,3.9-2.5c3.5-3.6,5.5-7.9,5.8-12.9c0.1-1.6-0.1-3.1-0.8-4.5c-1-1.8-2.5-2.6-4.5-2.2  C85.2,54.8,83,56.6,80.9,58.6z"/><path d="M61.3,37.7c0-1.1-7.9-7.1-9.3-6.9c-5.9,0.6-12.2,7.8-11,16.1c0.9,2.6,5.6,5.4,8.1,7.1C49.2,46.1,50.9,39.7,61.3,37.7z"/><path d="M41.6,53.3l-3.8-2.8c-8,1.2-16.8,7.8-16.8,7.8s-5.8,10.5-5.5,10.2C17.8,65.7,31.4,54.1,41.6,53.3z"/><path d="M73.2,71.7c-0.7,2.2-1.6,4.1-1.3,6.2c0.2,1.5,1.6,3,3.1,3.5c1.9,0.5,4.1-0.2,6.8-2.1C74.2,78.1,73.5,73.5,73.2,71.7z"/></svg>