<svg xmlns="http://www.w3.org/2000/svg" version="1.1" viewBox="-5.0 -10.0 110.0 110.0">
 <g>
  <path d="m82.52 76.047c6.375 2.8242 2.6406 11.254-3.7344 8.4297-6.3711-2.8203-2.6367-11.254 3.7344-8.4297"/>
  <path d="m79.551 82.75c6.375 2.8242 2.6367 11.258-3.7344 8.4336-6.375-2.8242-2.6367-11.254 3.7344-8.4336"/>
  <path d="m24.184 50.203c6.375 2.8242 2.6367 11.258-3.7344 8.4336-6.375-2.8242-2.6367-11.254 3.7344-8.4336"/>
  <path d="m21.215 56.91c6.3711 2.8203 2.6367 11.254-3.7344 8.4297-6.375-2.8203-2.6406-11.254 3.7344-8.4297"/>
  <path d="m80.676 80.211-2.9922 6.7539-56.727-25.129 2.9922-6.7539z"/>
  <path d="m24.125 78.145c2.4922 5.6211-7.0703 9.8555-9.5586 4.2344-2.4883-5.6211 7.0703-9.8555 9.5586-4.2344"/>
  <path d="m27.098 84.852c2.4883 5.6211-7.0703 9.8555-9.5625 4.2344-2.4883-5.6211 7.0703-9.8555 9.5625-4.2344"/>
  <path d="m82.465 52.305c2.4883 5.6211-7.0703 9.8555-9.5625 4.2344-2.4883-5.6211 7.0703-9.8594 9.5625-4.2344"/>
  <path d="m85.434 59.008c2.4883 5.6211-7.0703 9.8555-9.5586 4.2344-2.4922-5.6211 7.0703-9.8555 9.5586-4.2344"/>
  <path d="m76.047 55.082 2.9922 6.7539-56.727 25.129-2.9922-6.7539z"/>
  <path d="m72.109 26.422c-1.3906-10.441-10.879-18.523-21.438-18.09h-1.3398c-10.559-0.42969-20.051 7.6484-21.441 18.09-0.26953 1.9688-0.12109 4.0391 0.19922 5.9883 0.16016 1.0195 0.39844 2.0312 0.71094 3.0195 0.17188 0.55078 0.92969 1.8086 0.87109 2.2891-0.28125 2.1719-0.62891 4.3906-0.57812 6.5898 0.019531 1.25 0.32812 2.5703 1.2305 3.4297 0.67188 0.66016 1.5898 0.98047 2.4609 1.3281 0.80859 0.32031 1.6016 0.67969 2.3789 1.0703 1.7891 0.89062 2.0195 3.0195 2.4414 4.7812 0.30859 1.3398 0.80859 2.7305 1.9102 3.5391 0.66016 0.48828 1.4688 0.71875 2.2695 0.92188 2.4492 0.62109 5.1211 1.3906 7.6602 1.3906h1.1211c2.5391 0 5.2109-0.76953 7.6602-1.3906 0.80078-0.19922 1.6094-0.42969 2.2695-0.92188 1.1016-0.80859 1.6016-2.1992 1.9102-3.5391 0.42188-1.7617 0.64844-3.8906 2.4414-4.7812 0.78125-0.39062 1.5703-0.75 2.3789-1.0703 0.87109-0.35156 1.7891-0.67188 2.4609-1.3281 0.89844-0.85938 1.2109-2.1797 1.2305-3.4297 0.050781-2.1992-0.30078-4.4219-0.57812-6.5898-0.058594-0.48047 0.69922-1.7383 0.87109-2.2891 0.30859-0.98828 0.55078-2 0.71094-3.0195 0.30859-1.9492 0.45703-4.0195 0.1875-5.9883zm-29.801 18.109c-0.60156 0.32031-1.2188 0.57812-1.8281 0.78125-2.2695 0.5-4.7109-0.51953-5.9297-2.6602-1.2188-2.1484-0.85156-4.7695 0.73047-6.4609 0.48047-0.42969 1.0195-0.82812 1.6094-1.1797 0.14062-0.10938 0.30859-0.21094 0.46875-0.30078 4.0781-2.3203 8.6016-2.0703 10.102 0.57031 1.5117 2.6406-0.57031 6.6602-4.6484 8.9883-0.16406 0.089844-0.33203 0.17969-0.50391 0.26172zm10.293 8.3594h-5.1992c-1.5312 0-2.5195-1.6211-1.8281-2.9805l2.6016-5.1016c0.76172-1.5 2.8984-1.5 3.6602 0l2.6016 5.1016c0.68359 1.3594-0.30859 2.9805-1.8359 2.9805zm12.848-10.242c-1.2188 2.1406-3.6602 3.1602-5.9297 2.6602-0.60938-0.19922-1.2305-0.46094-1.8281-0.78125-0.17188-0.078125-0.33984-0.17188-0.5-0.26172-4.0781-2.3281-6.1602-6.3516-4.6484-8.9883 1.5-2.6406 6.0195-2.8906 10.102-0.57031 0.16016 0.089844 0.32812 0.19141 0.46875 0.30078 0.58984 0.35156 1.1289 0.75 1.6094 1.1797 1.5781 1.6914 1.9492 4.3125 0.72656 6.4609z"/>
 </g></svg>