<svg xmlns:dc="http://purl.org/dc/elements/1.1/" xmlns:cc="http://creativecommons.org/ns#" xmlns:rdf="http://www.w3.org/1999/02/22-rdf-syntax-ns#" xmlns:svg="http://www.w3.org/2000/svg" xmlns="http://www.w3.org/2000/svg" xmlns:sodipodi="http://sodipodi.sourceforge.net/DTD/sodipodi-0.dtd" xmlns:inkscape="http://www.inkscape.org/namespaces/inkscape" version="1.1" x="0px" y="0px" viewBox="0 0 100 100"><g transform="translate(0,-952.36218)"><path style="color:#000000;enable-background:accumulate;" d="m 82.75837,958.3687 c -0.4041,0.0501 -0.7915,0.22721 -1.0938,0.5 l -9,8 c -0.4164,0.37778 -0.6614,0.93776 -0.6562,1.5 l 0,9.15625 -30.4062,30.40625 c -0.7694,0.7304 -0.7911,2.1028 -0.045,2.8571 0.746,0.7543 2.1185,0.7479 2.8574,-0.013 l 30.4063,-30.4062 9.1875,0 c 0.5669,-0.003 1.1279,-0.25973 1.5,-0.6875 l 8,-9 c 0.499,-0.57403 0.6264,-1.44452 0.3126,-2.13742 -0.3138,-0.6929 -1.052,-1.17147 -1.8126,-1.17508 l -7,0 0,-7 c 0.01,-1.13593 -1.1229,-2.1419 -2.25,-2 z m -39.75,14 c -20.4345,0 -37.0000002,16.56546 -37.0000002,37 0,20.4344 16.5655002,37 37.0000002,37 20.4345,0 37,-16.5656 37,-37 0,-9.1452 -3.3147,-17.51144 -8.8125,-23.96874 l -6.4063,6.4062 c 3.8801,4.8061 6.2188,10.91854 6.2188,17.56254 0,15.4401 -12.5597,28 -28,28 -15.4402,0 -28,-12.5599 -28,-28 0,-15.44044 12.5598,-28 28,-28 6.6284,0 12.7304,2.32395 17.5312,6.18746 l 6.4063,-6.40621 c -6.4528,-5.48087 -14.8079,-8.78125 -23.9375,-8.78125 z m 0,12.99996 c -13.2784,0 -24,10.7214 -24,24.00004 0,13.2783 10.7216,24 24,24 13.2785,0 24,-10.7217 24,-24 0,-5.5625 -1.8686,-10.68514 -5.0312,-14.75004 l -5.0313,5.0313 c 1.9291,2.75694 3.0625,6.11034 3.0625,9.71874 0,9.3651 -7.6348,17 -17,17 -9.3652,0 -17,-7.6349 -17,-17 0,-9.3652 7.6348,-17.00004 17,-17.00004 3.5927,0 6.9374,1.1174 9.6875,3.0313 l 5.0313,-5.0313 c -4.0594,-3.1465 -9.1721,-5 -14.7188,-5 z m 0,11 c -7.2034,0 -13,5.79654 -13,13.00004 0,7.2033 5.7966,13 13,13 7.2034,0 13,-5.7967 13,-13 0,-2.5139 -0.7122,-4.8591 -1.9375,-6.8437 l -6.125,6.1249 c 0.035,0.2386 0.062,0.4705 0.062,0.7188 0,2.7614 -2.2387,5 -5,5 -2.7615,0 -5,-2.2386 -5,-5 0,-2.7615 2.2385,-5 5,-5 0.227,0 0.4376,0.033 0.6562,0.062 l 6.1563,-6.15624 c -1.9762,-1.2114 -4.3137,-1.9063 -6.812,-1.9063 z" fill="#000000" stroke="none" marker="none" visibility="visible" display="inline" overflow="visible"/></g></svg>